<svg width="333" height="306" viewBox="0 0 333 306" xmlns="http://www.w3.org/2000/svg"><title>Group 4</title><g transform="translate(0 1)" fill="none" fill-rule="evenodd"><path fill="#FFEBDE" d="M34.077 110.778L16.051 130.21l19.665 20.368v.468h-9.364l-17.09-18.027v18.027H1.536v-40.5h7.726v17.089l15.45-17.09 9.365.234zM91.2 151.279h-9.13L70.13 137.7h-7.258v13.578h-7.725v-40.735h19.43c9.6 0 14.516 6.555 14.516 13.344 0 5.619-2.576 11.237-10.301 12.876L91.2 150.577v.702zM62.872 117.8v13.11h11.706c4.916 0 7.023-3.277 7.023-6.554 0-3.278-2.107-6.556-7.023-6.556H62.872zm47.29 33.479v-40.735h7.492v40.5h-7.492zm55.484-30.902c-1.405-2.341-5.15-4.448-9.599-4.448-5.618 0-8.427 2.34-8.427 5.384 0 3.512 4.214 4.448 9.13 5.15 8.428.937 16.387 3.278 16.387 12.876 0 9.13-7.96 12.876-17.09 12.876-8.193 0-14.748-2.575-17.792-10.066l6.321-3.278c1.873 4.448 6.555 6.555 11.471 6.555 4.917 0 9.365-1.639 9.365-6.087 0-3.745-3.98-5.384-9.365-6.086-8.193-.937-15.919-3.278-15.919-12.408 0-8.428 8.194-11.706 15.685-11.94 6.321 0 12.876 1.873 15.92 7.96l-6.087 3.512zm39.33-2.81H192.1v-7.023h33.477v7.023h-12.875v33.712h-7.726v-33.712zm71.169 33.712H245.71v-40.5h30.434v7.257h-22.709v9.364h22.006v7.023h-22.006v9.13h22.709v7.726zm48.226-40.735h7.726v40.735h-4.683l-21.303-27.39v27.39h-7.726v-40.735h6.321l19.9 25.284v-25.284z"/><path d="M205.047 69.243c7.023 0 10.769-8.194 6.321-13.578-10.769-13.344-27.157-23.645-45.651-23.645-18.495 0-35.116 10.3-45.885 23.645-4.448 5.384-.468 13.578 6.32 13.578h78.895z" stroke="#FFEBDE" stroke-width="1.859"/><path d="M187.723 37.404c.937 2.341 1.17 4.917 1.17 7.726 0 12.876-10.534 23.41-23.41 23.41s-23.411-10.534-23.411-23.41c0-2.81.468-5.385 1.405-7.96" stroke="#FFEBDE" stroke-width="1.859"/><ellipse stroke="#FFEBDE" stroke-width="1.859" cx="165.717" cy="45.13" rx="10.301" ry="10.301"/><path d="M135.049 24.528l-9.833-15.217m-4.448 23.177L106.956 20.08m1.873 22.943l-16.622-6.555" stroke="#FFEBDE" stroke-width="1.859" stroke-linecap="round"/><path d="M150.032 20.08l-4.917-18.26"/><path d="M196.385 24.528l9.833-15.217m4.448 23.177l13.812-12.408m-1.873 22.943l16.622-6.555M181.402 20.08l5.15-18.26m-36.137 18.26l-5.15-18.26m20.218 16.856V.416" stroke="#FFEBDE" stroke-width="1.859" stroke-linecap="round"/><path d="M33.555 203.017c-3.004-6.122-9.409-7.879-15.587-7.879-7.312.057-15.361 3.401-15.361 11.563 0 8.9 7.482 11.053 15.587 12.017 5.272.567 9.183 2.097 9.183 5.838 0 4.308-4.421 5.952-9.126 5.952-4.818 0-9.41-1.927-11.166-6.292l-6.235 3.23c2.947 7.256 9.182 9.75 17.288 9.75 8.842 0 16.664-3.797 16.664-12.64 0-9.466-7.708-11.62-15.984-12.64-4.761-.567-8.842-1.53-8.842-4.988 0-2.947 2.664-5.271 8.218-5.271 4.308 0 8.05 2.153 9.41 4.42l5.951-3.06zm21.41.567H66.19c9.523 0 9.58 14.057 0 14.057H54.966v-14.057zm11.224-7.142c-6.235 0-12.47.056-18.705.056v39.678h7.482v-11.677h11.223c19.442 0 19.385-28.057 0-28.057zm56.1 32.365h-22.276v-8.955h21.482v-6.972h-21.482v-9.126h22.276v-7.256H92.588v39.678h29.701v-7.369zm39.946-7.708l-19.442-24.6h-6.065v39.677h7.482v-26.754l20.859 26.81v-.056h4.648v-39.734h-7.482v24.657zm51.112 4.93c-2.608 2.608-6.519 4.025-9.976 4.025-9.806 0-13.604-6.858-13.66-13.433-.057-6.632 4.08-13.774 13.66-13.774 3.457 0 6.972 1.19 9.579 3.74l4.988-4.817c-4.081-4.025-9.183-6.065-14.567-6.065-14.34 0-21.086 10.543-21.03 20.916.057 10.316 6.292 20.462 21.03 20.462 5.725 0 10.996-1.87 15.077-5.895l-5.101-5.158zm45.784 2.778h-22.276v-8.955h21.482v-6.972h-21.482v-9.126h22.276v-7.256h-29.702v39.678h29.702v-7.369zm47.88 6.859l-12.016-13.547c7.539-1.53 10.033-7.029 10.033-12.47 0-6.859-4.931-13.094-14.284-13.15-6.292 0-12.583-.057-18.875-.057v39.734h7.482v-13.264h7.199l11.563 13.264h8.899v-.51zm-16.267-32.196c4.705 0 6.802 3.175 6.802 6.349 0 3.174-2.04 6.348-6.802 6.348h-11.393V203.47h11.393z" fill="#FFEBDE"/><path d="M68.524 283.092c8.546 0 8.546 20.195 17.092 20.195 8.547 0 8.547-20.195 17.092-20.195 8.545 0 8.545 20.195 17.09 20.195 8.546 0 8.546-20.195 17.092-20.195 8.545 0 8.545 20.195 17.09 20.195 8.548 0 8.548-20.195 17.095-20.195 8.547 0 8.547 20.195 17.094 20.195s8.547-20.195 17.094-20.195 8.547 20.195 17.094 20.195c8.549 0 8.549-20.195 17.097-20.195 8.549 0 8.549 20.195 17.097 20.195" stroke="#FFEBDE" stroke-width="2"/></g></svg>